# xmcd
# Copyright (C) 1995-1998 Ti Kan
#
# Track frame offsets:
#       150
#       3000
#       3750
#       4650
#
# Disc length: 83 seconds
#
# Revision: 0
# Processed by: cddbd v1.5.2PL0 Copyright (c) Steve Scherf et al.
# Submitted via: CD-Import v1.0
#
DISCID=13005104
DTITLE=Talking All That Jazz - Jingle
DYEAR=1900
DGENRE=
TTITLE0=Talking A.t.j. 1
TTITLE1=Talking A.t.j. 2
TTITLE2=Talking A.t.j. 3
TTITLE3=Talking A.t.j. 4
EXTD=
EXTT0=
EXTT1=
EXTT2=
EXTT3=
PLAYORDER=
